<svg width="22" height="37" viewBox="0 0 22 37" fill="#303030" xmlns="http://www.w3.org/2000/svg">
<path d="M20.4504 35.3341C20.7517 35.0334 20.9908 34.6763 21.1538 34.2831C21.3169 33.89 21.4009 33.4685 21.4009 33.0428C21.4009 32.6172 21.3169 32.1957 21.1538 31.8026C20.9908 31.4094 20.7517 31.0523 20.4504 30.7516L7.84044 18.1416L20.4504 5.53159C21.0581 4.92391 21.3995 4.09973 21.3995 3.24035C21.3995 2.38096 21.0581 1.55677 20.4504 0.949089C19.8428 0.341412 19.0186 2.69111e-05 18.1592 2.69863e-05C17.2998 2.70614e-05 16.4756 0.341412 15.8679 0.94909L0.950434 15.8666C0.649147 16.1673 0.410116 16.5244 0.247027 16.9176C0.0839388 17.3107 -7.34432e-06 17.7322 -7.30711e-06 18.1578C-7.26989e-06 18.5835 0.083939 19.005 0.247027 19.3981C0.410117 19.7913 0.649148 20.1484 0.950434 20.4491L15.8679 35.3666C17.1029 36.6016 19.1829 36.6016 20.4504 35.3341Z" fill="black"/>
</svg>
